<svg width="133" height="27" viewBox="0 0 133 27" fill="none" xmlns="http://www.w3.org/2000/svg">
<path d="M0.463432 26V1.02422H4.98785V22.2073H15.9879V26H0.463432ZM41.2594 13.5121C41.2594 16.2032 40.7554 18.5081 39.7472 20.4268C38.7472 22.3374 37.3814 23.8008 35.6497 24.8171C33.9261 25.8333 31.9708 26.3415 29.7838 26.3415C27.5967 26.3415 25.6374 25.8333 23.9057 24.8171C22.1821 23.7927 20.8162 22.3252 19.8081 20.4146C18.8081 18.4959 18.3081 16.1951 18.3081 13.5121C18.3081 10.821 18.8081 8.5202 19.8081 6.60962C20.8162 4.69091 22.1821 3.22342 23.9057 2.20715C25.6374 1.19088 27.5967 0.68275 29.7838 0.68275C31.9708 0.68275 33.9261 1.19088 35.6497 2.20715C37.3814 3.22342 38.7472 4.69091 39.7472 6.60962C40.7554 8.5202 41.2594 10.821 41.2594 13.5121ZM36.7106 13.5121C36.7106 11.6178 36.4139 10.0202 35.8204 8.71939C35.235 7.41044 34.422 6.42263 33.3813 5.75596C32.3407 5.08116 31.1415 4.74376 29.7838 4.74376C28.426 4.74376 27.2268 5.08116 26.1862 5.75596C25.1455 6.42263 24.3284 7.41044 23.7349 8.71939C23.1496 10.0202 22.8569 11.6178 22.8569 13.5121C22.8569 15.4064 23.1496 17.0081 23.7349 18.317C24.3284 19.6178 25.1455 20.6057 26.1862 21.2805C27.2268 21.9471 28.426 22.2805 29.7838 22.2805C31.1415 22.2805 32.3407 21.9471 33.3813 21.2805C34.422 20.6057 35.235 19.6178 35.8204 18.317C36.4139 17.0081 36.7106 15.4064 36.7106 13.5121ZM62.2687 8.99988C62.0655 8.34134 61.785 7.75191 61.4273 7.23158C61.0777 6.70312 60.6549 6.25189 60.159 5.87791C59.6712 5.50392 59.1102 5.22343 58.476 5.03644C57.8419 4.84132 57.1508 4.74376 56.4028 4.74376C55.0614 4.74376 53.8662 5.08116 52.8175 5.75596C51.7687 6.43076 50.9435 7.42263 50.3418 8.73159C49.7483 10.0324 49.4516 11.6178 49.4516 13.4877C49.4516 15.3739 49.7483 16.9715 50.3418 18.2804C50.9353 19.5894 51.7605 20.5853 52.8175 21.2683C53.8744 21.9431 55.102 22.2805 56.5004 22.2805C57.7687 22.2805 58.8663 22.0366 59.7931 21.5487C60.7281 21.0609 61.4476 20.3699 61.9517 19.4756C62.4557 18.5731 62.7078 17.5162 62.7078 16.3048L63.7322 16.4633H56.9516V12.9267H67.0858V15.9268C67.0858 18.065 66.6306 19.9146 65.72 21.4756C64.8094 23.0366 63.5574 24.2398 61.9639 25.0854C60.3704 25.9228 58.5411 26.3415 56.476 26.3415C54.1752 26.3415 52.1548 25.8252 50.415 24.7927C48.6833 23.752 47.3296 22.2764 46.354 20.3658C45.3865 18.4471 44.9028 16.1707 44.9028 13.5365C44.9028 11.5202 45.1873 9.7194 45.7564 8.13402C46.3337 6.54865 47.1386 5.20311 48.1711 4.09741C49.2036 2.98358 50.415 2.13805 51.8053 1.56081C53.1955 0.975435 54.7077 0.68275 56.3419 0.68275C57.724 0.68275 59.0126 0.886004 60.2077 1.29251C61.4029 1.69089 62.4639 2.26 63.3907 2.99984C64.3257 3.73968 65.094 4.61774 65.6956 5.634C66.2972 6.65027 66.6915 7.77223 66.8785 8.99988H62.2687ZM75.9853 1.02422V26H71.4609V1.02422H75.9853ZM96.6287 1.02422H101.153V17.3414C101.153 19.13 100.73 20.7032 99.8849 22.0609C99.0474 23.4187 97.8686 24.4797 96.3482 25.2439C94.8279 26 93.0515 26.3781 91.0189 26.3781C88.9783 26.3781 87.1978 26 85.6774 25.2439C84.1571 24.4797 82.9782 23.4187 82.1408 22.0609C81.3034 20.7032 80.8847 19.13 80.8847 17.3414V1.02422H85.4091V16.9634C85.4091 18.004 85.6368 18.9308 86.0921 19.7439C86.5555 20.5569 87.2059 21.1951 88.0433 21.6585C88.8807 22.1138 89.8726 22.3414 91.0189 22.3414C92.1653 22.3414 93.1572 22.1138 93.9946 21.6585C94.8401 21.1951 95.4905 20.5569 95.9458 19.7439C96.4011 18.9308 96.6287 18.004 96.6287 16.9634V1.02422ZM106.071 1.02422H111.607L119.022 19.1219H119.315L126.73 1.02422H132.266V26H127.925V8.84134H127.693L120.79 25.9268H117.547L110.644 8.80476H110.412V26H106.071V1.02422Z" fill="#0C1529"/>
</svg>
