<svg width="121" height="24" viewBox="0 0 121 24" fill="none" xmlns="http://www.w3.org/2000/svg">
<path d="M12.0423 12.0931H3.58618V8.70515H12.0423C12.5362 8.70515 12.8797 8.79232 13.052 8.94454C13.2244 9.09677 13.3311 9.37909 13.3311 9.79152V11.008C13.3311 11.4426 13.2244 11.7249 13.052 11.8771C12.8797 12.0293 12.5362 12.0944 12.0423 12.0944V12.0931ZM12.6224 5.51107H0V19.9996H3.58618V15.2858H10.1951L13.3311 19.9996H17.3469L13.8894 15.2637C15.1641 15.0725 15.7365 14.677 16.2086 14.0251C16.6806 13.3733 16.9173 12.3312 16.9173 10.9404V9.85397C16.9173 9.02911 16.8311 8.37728 16.6806 7.87768C16.5301 7.37807 16.2729 6.94352 15.9076 6.55321C15.5217 6.1837 15.0921 5.9235 14.5763 5.74915C14.0605 5.59693 13.416 5.50977 12.6224 5.50977V5.51107Z" fill="#100943"/>
<path d="M22.3662 15.72V5.50977H18.7754V15.6328C18.7754 16.4578 18.8398 17.1318 18.9905 17.6314C19.1412 18.1532 19.3987 18.5878 19.7864 18.956C20.1522 19.3464 20.5823 19.6079 21.0974 19.7602C21.614 19.9332 22.2578 19.9996 23.0758 19.9996H31.4138C32.2097 19.9996 32.855 19.9345 33.3701 19.7602C33.8866 19.6079 34.3168 19.3477 34.7031 18.956C35.0689 18.5865 35.3264 18.1519 35.4772 17.6314C35.6278 17.1318 35.7142 16.4578 35.7142 15.6328V5.50977H32.1234V15.72C32.1234 16.1546 32.0166 16.437 31.844 16.5892C31.6713 16.7414 31.3274 16.8065 30.8329 16.8065H23.6566C23.1401 16.8065 22.7962 16.7414 22.625 16.5892C22.4523 16.437 22.3674 16.1546 22.3674 15.72H22.3662Z" fill="#100943"/>
<path d="M48.7267 19.9996V8.70283H55.5105V5.50977H38.3677V8.70283H45.1516V19.9996H48.7267Z" fill="#100943"/>
<path d="M61.7544 15.72V5.50977H58.1636V15.6328C58.1636 16.4578 58.2281 17.1318 58.3787 17.6314C58.5293 18.1532 58.7868 18.5878 59.1746 18.956C59.5403 19.3464 59.9705 19.6079 60.4856 19.7602C61.0021 19.9332 61.646 19.9996 62.464 19.9996H70.8019C71.5979 19.9996 72.2432 19.9345 72.7583 19.7602C73.2748 19.6079 73.705 19.3477 74.0913 18.956C74.457 18.5865 74.7146 18.1519 74.8654 17.6314C75.016 17.1318 75.1024 16.4578 75.1024 15.6328V5.50977H71.5115V15.72C71.5115 16.1546 71.4048 16.437 71.2321 16.5892C71.0609 16.7414 70.7156 16.8065 70.2211 16.8065H63.0448C62.5283 16.8065 62.1844 16.7414 62.0132 16.5892C61.8405 16.437 61.7556 16.1546 61.7556 15.72H61.7544Z" fill="#100943"/>
<path d="M81.3507 16.8065V14.2003H89.8505C90.3456 14.2003 90.6901 14.2874 90.8627 14.4397C91.0356 14.5919 91.1425 14.8743 91.1425 15.2867V15.7213C91.1425 16.1559 91.0356 16.4383 90.8627 16.5905C90.6913 16.7427 90.3456 16.8078 89.8505 16.8078H81.3507V16.8065ZM81.3507 11.3104V8.70413H88.9864C89.5035 8.70413 89.8478 8.79132 90.0195 8.94354C90.1921 9.09579 90.2772 9.37813 90.2772 9.7906V10.2252C90.2772 10.6598 90.1909 10.9421 90.0195 11.0944C89.8478 11.2466 89.5023 11.3117 88.9864 11.3117H81.3507V11.3104ZM93.8521 9.72426V9.44189C93.8521 8.09519 93.5078 7.09589 92.819 6.46613C92.1305 5.83636 91.0317 5.50977 89.568 5.50977H77.7554V19.9996H90.4101C91.8737 19.9996 92.9725 19.6951 93.6611 19.0653C94.3499 18.4356 94.6941 17.4363 94.6941 16.0896V15.7851C94.6941 14.4384 94.3499 13.482 93.6611 12.9173C93.5323 12.8301 93.4033 12.7651 93.2729 12.7C93.1441 12.6349 92.8178 12.5478 92.5817 12.4606C93.0552 12.2004 93.3788 11.8529 93.5721 11.4613C93.745 11.0696 93.8521 10.4841 93.8521 9.72295V9.72426Z" fill="#100943"/>
<path d="M100.119 8.70283H113.061V5.50977H96.5308V19.9996H113.061V16.8065H100.119V14.3512H111.413V11.1581H100.119V8.70283Z" fill="#100943"/>
<path d="M117.653 5.5102C119.175 5.5102 120.408 4.27669 120.408 2.7551C120.408 1.2335 119.175 0 117.653 0C116.131 0 114.898 1.2335 114.898 2.7551C114.898 4.27669 116.131 5.5102 117.653 5.5102Z" fill="#ED143B"/>
</svg>
