<svg width="121" height="24" viewBox="0 0 121 24" fill="none" xmlns="http://www.w3.org/2000/svg">
<path d="M0 11.52C0 6.0888 0 3.3744 1.6983 1.6872C3.3966 0 6.12886 0 11.5958 0H12.5621C18.029 0 20.7613 0 22.4596 1.6872C24.1579 3.3744 24.1579 6.0888 24.1579 11.52V12.48C24.1579 17.9112 24.1579 20.6256 22.4596 22.3128C20.7613 24 18.029 24 12.5621 24H11.5958C6.12886 24 3.3966 24 1.6983 22.3128C0 20.6256 0 17.9112 0 12.48V11.52Z" fill="#0077FF"/>
<path d="M14.0913 0C9.62929 0.0144 7.25457 0.1632 5.72296 1.6848C4.02466 3.372 4.02466 6.0864 4.02466 11.5176V12.4776C4.02466 17.9088 4.02466 20.6232 5.72296 22.3104C7.25457 23.832 9.62929 23.9808 14.0913 23.9952C18.5532 23.9808 20.9279 23.832 22.4595 22.3104C24.1578 20.6232 24.1578 17.9088 24.1578 12.4776V11.5176C24.1578 6.0864 24.1578 3.372 22.4595 1.6848C20.9279 0.1656 18.5532 0.0168 14.0913 0Z" fill="#FF2B42"/>
<path d="M17.0458 9.86647C18.2682 10.5673 18.877 10.9177 19.0823 11.3737C19.2611 11.7721 19.2611 12.2281 19.0823 12.6265C18.877 13.0849 18.2658 13.4329 17.0458 14.1337L13.7 16.0537C12.4776 16.7545 11.8688 17.1049 11.3663 17.0521C10.9291 17.0065 10.5329 16.7785 10.2744 16.4257C9.97723 16.0201 9.97723 15.3193 9.97723 13.9201V10.0801C9.97723 8.67847 9.97723 7.97767 10.2744 7.57447C10.5329 7.22167 10.9291 6.99367 11.3663 6.94807C11.8664 6.89527 12.4776 7.24567 13.7 7.94647L17.0458 9.86647Z" fill="white"/>
<path d="M39.3966 18.0015H36.3984L32.1323 6.00183H34.3425L37.7519 15.8909H38.0945L41.6239 6.00183H43.7997L39.3966 18.0015Z" fill="black"/>
<path d="M49.5079 11.7889L55.0589 18.0015H52.3519L47.8289 12.8612H47.3149V18.0015H45.259V6.00183H47.3149V10.8868H47.8118L52.095 6.00183H54.6306L49.5079 11.7889Z" fill="black"/>
<path d="M65.2464 18.0015H62.2481L57.9821 6.00183H60.1922L63.6016 15.8909H63.9443L67.4736 6.00183H69.6495L65.2464 18.0015Z" fill="black"/>
<path d="M72.9933 18.0015H71.0231V9.15068H72.9933V18.0015ZM72.0168 7.89114C71.6513 7.89114 71.3543 7.78334 71.1259 7.56775C70.8974 7.3408 70.7832 7.05145 70.7832 6.69969C70.7832 6.34792 70.8974 6.05857 71.1259 5.83163C71.3657 5.60468 71.6627 5.49121 72.0168 5.49121C72.3708 5.49121 72.6621 5.60468 72.8905 5.83163C73.119 6.05857 73.2332 6.34792 73.2332 6.69969C73.2332 7.05145 73.119 7.3408 72.8905 7.56775C72.6621 7.78334 72.3708 7.89114 72.0168 7.89114Z" fill="black"/>
<path d="M79.142 18.1717C78.3082 18.1717 77.5601 17.9788 76.8976 17.593C76.2351 17.1958 75.7154 16.6512 75.3385 15.959C74.973 15.2555 74.7903 14.4612 74.7903 13.5761C74.7903 12.691 74.973 11.9024 75.3385 11.2102C75.7154 10.5067 76.2351 9.96201 76.8976 9.5762C77.5601 9.17905 78.3082 8.98047 79.142 8.98047C79.8616 8.98047 80.5012 9.12799 81.0609 9.42302C81.6205 9.7067 82.0774 10.0641 82.4315 10.4953V6.00183H84.4017V18.0015H82.9283L82.5171 16.5718C82.1516 17.0143 81.6833 17.3944 81.1123 17.7121C80.5412 18.0185 79.8844 18.1717 79.142 18.1717ZM79.6217 16.4186C80.4555 16.4186 81.1294 16.1576 81.6434 15.6356C82.1688 15.1023 82.4315 14.4158 82.4315 13.5761C82.4315 12.7364 82.1688 12.0556 81.6434 11.5336C81.1294 11.0003 80.4555 10.7336 79.6217 10.7336C78.7993 10.7336 78.1312 11.0003 77.6172 11.5336C77.1032 12.0556 76.8462 12.7364 76.8462 13.5761C76.8462 14.4158 77.1032 15.1023 77.6172 15.6356C78.1312 16.1576 78.7993 16.4186 79.6217 16.4186Z" fill="black"/>
<path d="M95.4527 13.474C95.4527 13.6442 95.4412 13.8541 95.4184 14.1037H88.2569C88.3483 14.7959 88.6338 15.3519 89.1135 15.7718C89.5933 16.1803 90.2043 16.3845 90.9467 16.3845C91.4493 16.3845 91.9005 16.2881 92.3002 16.0952C92.7114 15.9023 93.0255 15.6413 93.2425 15.3122L95.0929 15.6186C94.7731 16.4356 94.2191 17.0654 93.431 17.5079C92.6543 17.9504 91.7862 18.1717 90.8268 18.1717C89.9359 18.1717 89.1364 17.9788 88.4282 17.593C87.7315 17.1958 87.1832 16.6512 86.7835 15.959C86.3951 15.2555 86.201 14.4612 86.201 13.5761C86.201 12.691 86.3951 11.9024 86.7835 11.2102C87.1832 10.5067 87.7315 9.96201 88.4282 9.5762C89.1364 9.17905 89.9359 8.98047 90.8268 8.98047C91.7177 8.98047 92.5115 9.17905 93.2083 9.5762C93.9164 9.96201 94.4647 10.501 94.853 11.1932C95.2528 11.874 95.4527 12.6343 95.4527 13.474ZM90.8268 10.6826C90.2329 10.6826 89.7132 10.8528 89.2677 11.1932C88.8337 11.5336 88.5367 11.9932 88.3768 12.5719H93.3111C93.1397 12.0045 92.8313 11.5506 92.3859 11.2102C91.9519 10.8584 91.4322 10.6826 90.8268 10.6826Z" fill="black"/>
<path d="M101.237 18.1717C100.323 18.1717 99.5007 17.9788 98.7697 17.593C98.0501 17.1958 97.4848 16.6512 97.0736 15.959C96.6738 15.2555 96.4739 14.4612 96.4739 13.5761C96.4739 12.691 96.6738 11.9024 97.0736 11.2102C97.4848 10.5067 98.0501 9.96201 98.7697 9.5762C99.5007 9.17905 100.323 8.98047 101.237 8.98047C102.151 8.98047 102.967 9.17905 103.687 9.5762C104.418 9.96201 104.983 10.5067 105.383 11.2102C105.794 11.9024 106 12.691 106 13.5761C106 14.4612 105.794 15.2555 105.383 15.959C104.983 16.6512 104.418 17.1958 103.687 17.593C102.967 17.9788 102.151 18.1717 101.237 18.1717ZM101.237 16.3845C102.036 16.3845 102.687 16.1292 103.19 15.6186C103.693 15.0966 103.944 14.4158 103.944 13.5761C103.944 12.7364 103.693 12.0612 103.19 11.5506C102.687 11.0286 102.036 10.7677 101.237 10.7677C100.437 10.7677 99.7863 11.0286 99.2837 11.5506C98.7811 12.0612 98.5299 12.7364 98.5299 13.5761C98.5299 14.4158 98.7811 15.0966 99.2837 15.6186C99.7863 16.1292 100.437 16.3845 101.237 16.3845Z" fill="black"/>
</svg>
